<?xml version="1.0" encoding="UTF-8"?>
<svg version="1.1" xmlns="http://www.w3.org/2000/svg" width="64" height="64">
<path d="M0 0 C1.11125244 -0.00945648 2.22250488 -0.01891296 3.36743164 -0.02865601 C5.16748657 -0.01954697 5.16748657 -0.01954697 7.00390625 -0.01025391 C8.2355249 -0.01312408 9.46714355 -0.01599426 10.73608398 -0.01895142 C14.00988582 -0.02151799 17.28326162 -0.00943251 20.55700684 0.00732422 C22.5645101 0.01317806 24.57161994 0.00734564 26.57910156 -0.00292969 C30.4292232 -0.02142621 34.27876059 -0.01922633 38.12890625 -0.01025391 C39.32894287 -0.0163266 40.52897949 -0.02239929 41.76538086 -0.02865601 C43.43225952 -0.01447128 43.43225952 -0.01447128 45.1328125 0 C46.6014978 0.00358017 46.6014978 0.00358017 48.09985352 0.00723267 C50.56640625 0.38818359 50.56640625 0.38818359 52.38174438 1.63021851 C53.88843308 3.86605153 53.94658744 5.21662062 53.95458984 7.90380859 C53.96404633 8.81485352 53.97350281 9.72589844 53.98324585 10.66455078 C53.97717316 11.64584961 53.97110046 12.62714844 53.96484375 13.63818359 C53.96771393 14.6478418 53.97058411 15.6575 53.97354126 16.69775391 C53.97558313 18.83285075 53.97004471 20.96796626 53.95751953 23.10302734 C53.94146803 26.3755873 53.9573645 29.64691216 53.9765625 32.91943359 C53.97458009 34.99235299 53.97073646 37.06527162 53.96484375 39.13818359 C53.97395279 40.61013184 53.97395279 40.61013184 53.98324585 42.11181641 C53.97378937 43.02286133 53.96433289 43.93390625 53.95458984 44.87255859 C53.95220306 45.6740332 53.94981628 46.47550781 53.94735718 47.30126953 C53.56640625 49.38818359 53.56640625 49.38818359 52.38174438 51.14614868 C49.88492079 52.85444865 48.14722797 52.76901904 45.1328125 52.77636719 C44.02156006 52.78582367 42.91030762 52.79528015 41.76538086 52.80502319 C40.56534424 52.7989505 39.36530762 52.79287781 38.12890625 52.78662109 C36.8972876 52.78949127 35.66566895 52.79236145 34.39672852 52.7953186 C31.12292668 52.79788517 27.84955088 52.78579969 24.57580566 52.76904297 C22.5683024 52.76318912 20.56119256 52.76902154 18.55371094 52.77929688 C14.7035893 52.79779339 10.85405191 52.79559352 7.00390625 52.78662109 C5.20385132 52.79573013 5.20385132 52.79573013 3.36743164 52.80502319 C1.70055298 52.79083847 1.70055298 52.79083847 0 52.77636719 C-0.97912354 52.77398041 -1.95824707 52.77159363 -2.96704102 52.76913452 C-5.43359375 52.38818359 -5.43359375 52.38818359 -7.24893188 51.14614868 C-8.75562058 48.91031565 -8.81377494 47.55974657 -8.82177734 44.87255859 C-8.83123383 43.96151367 -8.84069031 43.05046875 -8.85043335 42.11181641 C-8.84436066 41.13051758 -8.83828796 40.14921875 -8.83203125 39.13818359 C-8.83490143 38.12852539 -8.83777161 37.11886719 -8.84072876 36.07861328 C-8.84277063 33.94351643 -8.83723221 31.80840093 -8.82470703 29.67333984 C-8.80865553 26.40077988 -8.824552 23.12945503 -8.84375 19.85693359 C-8.84176759 17.78401419 -8.83792396 15.71109557 -8.83203125 13.63818359 C-8.83810394 12.65688477 -8.84417664 11.67558594 -8.85043335 10.66455078 C-8.84097687 9.75350586 -8.83152039 8.84246094 -8.82177734 7.90380859 C-8.81939056 7.10233398 -8.81700378 6.30085937 -8.81454468 5.47509766 C-8.43359375 3.38818359 -8.43359375 3.38818359 -7.24893188 1.63021851 C-4.75210829 -0.07808146 -3.01441547 0.00734815 0 0 Z M-6.43359375 4.38818359 C-6.43359375 5.70818359 -6.43359375 7.02818359 -6.43359375 8.38818359 C-0.82359375 8.38818359 4.78640625 8.38818359 10.56640625 8.38818359 C10.89640625 6.40818359 11.22640625 4.42818359 11.56640625 2.38818359 C8.94113436 2.33436253 6.31695912 2.29460047 3.69140625 2.26318359 C2.57185547 2.23804688 2.57185547 2.23804688 1.4296875 2.21240234 C-2.97011819 1.98729555 -2.97011819 1.98729555 -6.43359375 4.38818359 Z M13.56640625 2.38818359 C13.56640625 4.36818359 13.56640625 6.34818359 13.56640625 8.38818359 C26.10640625 8.38818359 38.64640625 8.38818359 51.56640625 8.38818359 C51.12110645 3.75798372 51.12110645 3.75798372 49.56640625 2.38818359 C46.90014595 2.29963199 44.25993511 2.27293686 41.59375 2.29052734 C40.397286 2.29264977 40.397286 2.29264977 39.176651 2.29481506 C36.6190319 2.30043043 34.06149907 2.31298547 31.50390625 2.32568359 C29.7740898 2.33069662 28.04427199 2.33525987 26.31445312 2.33935547 C22.06507072 2.35040485 17.81575313 2.36767973 13.56640625 2.38818359 Z M-6.43359375 10.38818359 C-6.47484375 16.43130859 -6.51609375 22.47443359 -6.55859375 28.70068359 C-6.57680176 30.60503174 -6.59500977 32.50937988 -6.61376953 34.47143555 C-6.61961095 35.98144244 -6.62470734 37.49145249 -6.62890625 39.00146484 C-6.63913818 39.78501343 -6.64937012 40.56856201 -6.65991211 41.37585449 C-6.66115895 45.24917596 -6.63380255 47.08787039 -4.43359375 50.38818359 C-2.0686435 50.84723769 -2.0686435 50.84723769 0.71875 50.77636719 C1.79326416 50.78582367 2.86777832 50.79528015 3.97485352 50.80502319 C5.13944092 50.7989505 6.30402832 50.79287781 7.50390625 50.78662109 C8.69491943 50.78949127 9.88593262 50.79236145 11.11303711 50.7953186 C13.63493321 50.79736305 16.15684503 50.79180677 18.67871094 50.77929688 C22.55048911 50.76324957 26.42122325 50.77913378 30.29296875 50.79833984 C32.73828357 50.79635748 35.18359773 50.79251395 37.62890625 50.78662109 C38.79349365 50.79269379 39.95808105 50.79876648 41.15795898 50.80502319 C42.23247314 50.79556671 43.3069873 50.78611023 44.4140625 50.77636719 C45.36289307 50.77398041 46.31172363 50.77159363 47.28930664 50.76913452 C48.04074951 50.64342072 48.79219238 50.51770691 49.56640625 50.38818359 C52.12394429 46.55187654 51.81972265 43.44333079 51.76171875 39.00146484 C51.75970459 38.27713257 51.75769043 37.55280029 51.75561523 36.80651855 C51.74516259 34.10450902 51.71723994 31.40258985 51.69140625 28.70068359 C51.62953125 19.63599609 51.62953125 19.63599609 51.56640625 10.38818359 C32.42640625 10.38818359 13.28640625 10.38818359 -6.43359375 10.38818359 Z " fill="#CA91E2" transform="translate(9.43359375,5.61181640625)"/>
<path d="M0 0 C0.98484375 -0.00128906 1.9696875 -0.00257812 2.984375 -0.00390625 C4.02078125 -0.00003906 5.0571875 0.00382812 6.125 0.0078125 C7.67960937 0.00201172 7.67960937 0.00201172 9.265625 -0.00390625 C10.25046875 -0.00261719 11.2353125 -0.00132813 12.25 0 C13.16007812 0.00112793 14.07015625 0.00225586 15.0078125 0.00341797 C17.125 0.1328125 17.125 0.1328125 18.125 1.1328125 C18.19820163 3.665589 18.21727569 6.16385168 18.1875 8.6953125 C18.166875 11.1496875 18.14625 13.6040625 18.125 16.1328125 C10.205 16.1328125 2.285 16.1328125 -5.875 16.1328125 C-5.895625 13.6784375 -5.91625 11.2240625 -5.9375 8.6953125 C-5.946604 7.92131104 -5.95570801 7.14730957 -5.96508789 6.34985352 C-5.97224913 4.61059533 -5.92524702 2.87135946 -5.875 1.1328125 C-4.22105883 -0.52112867 -2.27184587 0.00281567 0 0 Z M-3.875 2.1328125 C-3.875 6.0928125 -3.875 10.0528125 -3.875 14.1328125 C2.725 14.1328125 9.325 14.1328125 16.125 14.1328125 C16.125 10.1728125 16.125 6.2128125 16.125 2.1328125 C9.525 2.1328125 2.925 2.1328125 -3.875 2.1328125 Z " fill="#B97EE9" transform="translate(25.875,22.8671875)"/>
<path d="M0 0 C3.96 0 7.92 0 12 0 C11.67 1.32 11.34 2.64 11 4 C7.37 4 3.74 4 0 4 C0 2.68 0 1.36 0 0 Z " fill="#EFBBD5" transform="translate(6,9)"/>
<path d="M0 0 C2.475 0.495 2.475 0.495 5 1 C5.33 2.32 5.66 3.64 6 5 C4.02 5.66 2.04 6.32 0 7 C0 4.69 0 2.38 0 0 Z " fill="#B77CEB" transform="translate(29,28)"/>
<path d="M0 0 C0.33 0 0.66 0 1 0 C1 5.28 1 10.56 1 16 C0.34 16 -0.32 16 -1 16 C-1.02685095 13.52076199 -1.04676547 11.0418116 -1.0625 8.5625 C-1.07506836 7.50192383 -1.07506836 7.50192383 -1.08789062 6.41992188 C-1.09653588 4.61306441 -1.05220011 2.80612397 -1 1 C-0.67 0.67 -0.34 0.34 0 0 Z " fill="#C792E5" transform="translate(5,17)"/>
<path d="M0 0 C4.95 0 9.9 0 15 0 C15 0.66 15 1.32 15 2 C10.05 2 5.1 2 0 2 C0 1.34 0 0.68 0 0 Z " fill="#A161F5" transform="translate(21,43)"/>
<path d="M0 0 C4.62 0 9.24 0 14 0 C14 0.66 14 1.32 14 2 C9.38 2 4.76 2 0 2 C0 1.34 0 0.68 0 0 Z " fill="#A162F4" transform="translate(29,47)"/>
<path d="M0 0 C2.31 0 4.62 0 7 0 C6.67 0.66 6.34 1.32 6 2 C4.02 2 2.04 2 0 2 C0 1.34 0 0.68 0 0 Z " fill="#A85AF5" transform="translate(21,47)"/>
<path d="M0 0 C1.98 0 3.96 0 6 0 C6 0.66 6 1.32 6 2 C4.02 2 2.04 2 0 2 C0 1.34 0 0.68 0 0 Z " fill="#A062F4" transform="translate(37,43)"/>
</svg>
